<?xml version="1.0" encoding="UTF-8" standalone="no"?>
<!DOCTYPE svg PUBLIC "-//W3C//DTD SVG 1.1//EN" "http://www.w3.org/Graphics/SVG/1.1/DTD/svg11.dtd">
<svg width="100%" height="100%" viewBox="0 0 1080 850" version="1.1" xmlns="http://www.w3.org/2000/svg" xmlns:xlink="http://www.w3.org/1999/xlink" xml:space="preserve" xmlns:serif="http://www.serif.com/" style="fill-rule:evenodd;clip-rule:evenodd;stroke-linejoin:round;stroke-miterlimit:2;">
    <g transform="matrix(1.74044,0,0,2.49744,-273.677,-932.244)">
        <path d="M674.758,507.28C674.758,487.884 652.161,472.136 624.328,472.136L300.539,472.136L300.539,612.711L624.328,612.711C652.161,612.711 674.758,596.964 674.758,577.567L674.758,507.28Z" style="fill:rgb(235,235,235);"/>
    </g>
    <g transform="matrix(2.49744,0,0,2.49744,-501.184,-932.244)">
        <ellipse cx="302.478" cy="544.363" rx="70.772" ry="70.287" style="fill:rgb(235,235,235);"/>
    </g>
    <g transform="matrix(2.49744,0,0,2.49744,-578.663,-966.141)">
        <ellipse cx="379.551" cy="487.648" rx="74.165" ry="62.047" style="fill:rgb(235,235,235);"/>
    </g>
    <g transform="matrix(2.49744,0,0,2.49744,-501.184,-932.244)">
        <ellipse cx="464.865" cy="481.346" rx="65.44" ry="56.715" style="fill:rgb(235,235,235);"/>
    </g>
    <g transform="matrix(2.76598,0,0,2.80962,-640.807,-1082.66)">
        <ellipse cx="555.996" cy="540" rx="45.081" ry="42.657" style="fill:rgb(235,235,235);"/>
    </g>
    <g transform="matrix(0.284704,0,0,0.284704,296.405,601.827)">
        <g id="snowflake-svgrepo-com-1-.svg" serif:id="snowflake-svgrepo-com(1).svg">
            <g>
                <g>
                    <g>
                        <path d="M800,372.727L653.9,372.727L710.191,316.434L671.62,277.866L576.762,372.727L447.236,372.727L511.998,260.558L641.584,225.836L627.466,173.147L550.569,193.753L623.619,67.227L576.381,39.955L503.331,166.48L482.725,89.584L430.037,103.703L464.763,233.284L400,345.455L335.241,233.288L369.959,103.7L317.273,89.584L296.669,166.48L223.619,39.955L176.381,67.227L249.431,193.752L172.534,173.148L158.419,225.838L288,260.556L352.764,372.727L223.241,372.727L128.375,277.864L89.808,316.433L146.1,372.727L0,372.727L0,427.273L146.1,427.273L89.808,483.567L128.375,522.136L223.241,427.273L352.764,427.273L288.002,539.442L158.413,574.164L172.531,626.853L249.433,606.245L176.381,732.773L223.619,760.045L296.667,633.52L317.273,710.419L369.959,696.3L335.236,566.716L400,454.545L464.763,566.714L430.037,696.302L482.725,710.417L503.33,633.519L576.381,760.045L623.619,732.773L550.569,606.247L627.466,626.853L641.581,574.164L512,539.444L447.236,427.273L576.759,427.273L671.623,522.136L710.191,483.567L653.898,427.273L800,427.273L800,372.727Z" style="fill:rgb(0,136,255);fill-rule:nonzero;"/>
                    </g>
                </g>
            </g>
        </g>
    </g>
    <g transform="matrix(0.284704,0,0,0.284704,535.992,504.924)">
        <g id="snowflake-svgrepo-com-1-.svg1" serif:id="snowflake-svgrepo-com(1).svg">
            <g>
                <g>
                    <g>
                        <path d="M800,372.727L653.9,372.727L710.191,316.434L671.62,277.866L576.762,372.727L447.236,372.727L511.998,260.558L641.584,225.836L627.466,173.147L550.569,193.753L623.619,67.227L576.381,39.955L503.331,166.48L482.725,89.584L430.037,103.703L464.763,233.284L400,345.455L335.241,233.288L369.959,103.7L317.273,89.584L296.669,166.48L223.619,39.955L176.381,67.227L249.431,193.752L172.534,173.148L158.419,225.838L288,260.556L352.764,372.727L223.241,372.727L128.375,277.864L89.808,316.433L146.1,372.727L0,372.727L0,427.273L146.1,427.273L89.808,483.567L128.375,522.136L223.241,427.273L352.764,427.273L288.002,539.442L158.413,574.164L172.531,626.853L249.433,606.245L176.381,732.773L223.619,760.045L296.667,633.52L317.273,710.419L369.959,696.3L335.236,566.716L400,454.545L464.763,566.714L430.037,696.302L482.725,710.417L503.33,633.519L576.381,760.045L623.619,732.773L550.569,606.247L627.466,626.853L641.581,574.164L512,539.444L447.236,427.273L576.759,427.273L671.623,522.136L710.191,483.567L653.898,427.273L800,427.273L800,372.727Z" style="fill:rgb(0,136,255);fill-rule:nonzero;"/>
                    </g>
                </g>
            </g>
        </g>
    </g>
</svg>
