<?xml version="1.0" encoding="UTF-8" standalone="no"?>
<!DOCTYPE svg PUBLIC "-//W3C//DTD SVG 1.1//EN" "http://www.w3.org/Graphics/SVG/1.1/DTD/svg11.dtd">
<svg width="100%" height="100%" viewBox="0 0 1080 850" version="1.1" xmlns="http://www.w3.org/2000/svg" xmlns:xlink="http://www.w3.org/1999/xlink" xml:space="preserve" xmlns:serif="http://www.serif.com/" style="fill-rule:evenodd;clip-rule:evenodd;stroke-linejoin:round;stroke-miterlimit:2;">
    <g transform="matrix(1.74044,0,0,2.49744,-273.677,-932.244)">
        <path d="M674.758,507.28C674.758,487.884 652.161,472.136 624.328,472.136L300.539,472.136L300.539,612.711L624.328,612.711C652.161,612.711 674.758,596.964 674.758,577.567L674.758,507.28Z" style="fill:rgb(235,235,235);"/>
    </g>
    <g transform="matrix(2.49744,0,0,2.49744,-501.184,-932.244)">
        <ellipse cx="302.478" cy="544.363" rx="70.772" ry="70.287" style="fill:rgb(235,235,235);"/>
    </g>
    <g transform="matrix(2.49744,0,0,2.49744,-578.663,-966.141)">
        <ellipse cx="379.551" cy="487.648" rx="74.165" ry="62.047" style="fill:rgb(235,235,235);"/>
    </g>
    <g transform="matrix(2.49744,0,0,2.49744,-501.184,-932.244)">
        <ellipse cx="464.865" cy="481.346" rx="65.44" ry="56.715" style="fill:rgb(235,235,235);"/>
    </g>
    <g transform="matrix(2.76598,0,0,2.80962,-640.807,-1082.66)">
        <ellipse cx="555.996" cy="540" rx="45.081" ry="42.657" style="fill:rgb(235,235,235);"/>
    </g>
</svg>
