<?xml version="1.0" encoding="UTF-8" standalone="no"?>
<!DOCTYPE svg PUBLIC "-//W3C//DTD SVG 1.1//EN" "http://www.w3.org/Graphics/SVG/1.1/DTD/svg11.dtd">
<svg width="100%" height="100%" viewBox="0 0 1080 850" version="1.1" xmlns="http://www.w3.org/2000/svg" xmlns:xlink="http://www.w3.org/1999/xlink" xml:space="preserve" xmlns:serif="http://www.serif.com/" style="fill-rule:evenodd;clip-rule:evenodd;stroke-linejoin:round;stroke-miterlimit:2;">
    <g transform="matrix(1.74044,0,0,2.49744,-273.677,-932.244)">
        <path d="M674.758,507.28C674.758,487.884 652.161,472.136 624.328,472.136L300.539,472.136L300.539,612.711L624.328,612.711C652.161,612.711 674.758,596.964 674.758,577.567L674.758,507.28Z" style="fill:rgb(235,235,235);"/>
    </g>
    <g transform="matrix(2.49744,0,0,2.49744,-501.184,-932.244)">
        <ellipse cx="302.478" cy="544.363" rx="70.772" ry="70.287" style="fill:rgb(235,235,235);"/>
    </g>
    <g transform="matrix(2.49744,0,0,2.49744,-578.663,-966.141)">
        <ellipse cx="379.551" cy="487.648" rx="74.165" ry="62.047" style="fill:rgb(235,235,235);"/>
    </g>
    <g transform="matrix(2.49744,0,0,2.49744,-501.184,-932.244)">
        <ellipse cx="464.865" cy="481.346" rx="65.44" ry="56.715" style="fill:rgb(235,235,235);"/>
    </g>
    <g transform="matrix(2.76598,0,0,2.80962,-640.807,-1082.66)">
        <ellipse cx="555.996" cy="540" rx="45.081" ry="42.657" style="fill:rgb(235,235,235);"/>
    </g>
    <g transform="matrix(0.430241,-0.679404,0.615486,0.389764,40.3536,640.751)">
        <path d="M541.526,694.726C541.526,675.986 527.743,660.772 510.766,660.772L208.327,660.772C191.35,660.772 177.567,675.986 177.567,694.726C177.567,713.466 191.35,728.68 208.327,728.68L510.766,728.68C527.743,728.68 541.526,713.466 541.526,694.726Z" style="fill:rgb(0,184,255);"/>
    </g>
    <g transform="matrix(0.430241,-0.679404,0.615486,0.389764,-71.8098,631.595)">
        <path d="M541.526,694.726C541.526,675.986 527.743,660.772 510.766,660.772L208.327,660.772C191.35,660.772 177.567,675.986 177.567,694.726C177.567,713.466 191.35,728.68 208.327,728.68L510.766,728.68C527.743,728.68 541.526,713.466 541.526,694.726Z" style="fill:rgb(0,184,255);"/>
    </g>
    <g transform="matrix(1.38731,0,0,1.34958,-124.464,-269.355)">
        <path d="M347.349,543.9L295.259,678.141L355.243,678.272L312.621,780.566L404.415,654.388L345.017,653.126L392.091,544.663L347.349,543.9Z" style="fill:rgb(255,220,0);"/>
    </g>
</svg>
